<svg xmlns="http://www.w3.org/2000/svg" version="1.2" baseProfile="tiny" width="316" height="276" viewBox="21 16 158 138"><path d="M 65,150 c -55,0 -50,-90 0,-90 0,-50 70,-50 70,0 50,0 55,90 0,90" stroke-width="4" stroke="black" fill="rgb(255,255,128)" fill-opacity="1" ></path><path d="m 110,110 10,10 10,0 -5,-15 m 0,-10 5,-15 -10,0 -10,10 m 17.2,10 c 0,6.1 -12.2,11.1 -27.2,11.1 -15,0 -27.2,-5 -27.2,-11.1 0,-6.1 12.2,-11.1 27.2,-11.1 15,0 27.2,5 27.2,11.1 z" stroke-width="4" stroke="black" fill="black" ></path></svg>