<svg xmlns="http://www.w3.org/2000/svg" version="1.2" baseProfile="tiny" width="316" height="276" viewBox="21 46 158 138"><path d="m 65,50 c -55,0 -50,90 0,90 0,50 70,50 70,0 50,0 55,-90 0,-90" stroke-width="4" stroke="black" fill="rgb(255,161,255)" fill-opacity="1" ></path><path d="M 114.3,94 C 114.3,102.3 107.9,109 100,109 c -7.9,0 -14.2,-6.7 -14.2,-15 0,-8.3 6.4,-15 14.2,-15 7.9,0 14.3,6.7 14.3,15 z m 0,27 14.3,15 -57,0 14.3,-15 M 125.7,79 l 14.3,0 0,30 -14.3,0 m -51.3,0 -14.3,0 0,-30 14.3,0 m 54.2,15 c 0,16.6 -12.8,30 -28.5,30 -15.7,0 -28.5,-13.4 -28.5,-30 C 71.5,77.4 84.3,64 100,64 115.7,64 128.5,77.4 128.5,94 z" stroke-width="4" stroke="black" fill="rgb(239, 239, 239)" ></path></svg>