<svg xmlns="http://www.w3.org/2000/svg" version="1.2" baseProfile="tiny" width="316" height="216" viewBox="21 46 158 108"><path d="M25,50 l150,0 0,100 -150,0 z" stroke-width="4" stroke="black" fill="rgb(128,224,255)" fill-opacity="1" ></path><path d="m 99.6,51 c -2.8,0 -5,2.3 -5,5.3 0,2.1 1.2,3.9 2.8,4.7 L 87.8,78.3 69.5,78.4 c -0.1,-2.8 -2.3,-5.1 -5,-5.1 -2.8,0 -5,2.3 -5,5.3 0,2.9 2.2,5.3 5,5.3 0.7,0 1.4,-0.2 2,-0.4 l 9.2,16.8 -9.4,17.2 c -0.6,-0.2 -1.2,-0.4 -1.8,-0.4 -2.8,0 -5,2.4 -5,5.3 0,2.9 2.2,5.3 5,5.3 2.8,0 5,-2.3 5,-5.3 0,-0.1 -0,-0.2 -0,-0.3 l 18.3,0.1 9.5,17.1 c -1.6,0.9 -2.7,2.6 -2.7,4.6 0,2.9 2.3,5.3 5,5.3 2.8,0 5,-2.3 5,-5.3 0,-1.9 -0.9,-3.5 -2.3,-4.4 l 9.6,-17.3 18.7,-0.1 c -0,0.1 -0,0.2 -0,0.3 0,2.9 2.3,5.3 5,5.3 2.8,0 5,-2.3 5,-5.3 0,-2.9 -2.2,-5.3 -5,-5.3 -0.8,0 -1.5,0.2 -2.1,0.5 l -9.5,-17.4 9.5,-17.4 c 0.6,0.3 1.4,0.5 2.1,0.5 2.8,0 5,-2.4 5,-5.3 0,-2.9 -2.2,-5.3 -5,-5.3 -2.8,0 -5,2.3 -5,5.3 0,0.1 0,0.2 0,0.3 L 111.8,78.3 102.1,60.8 c 1.5,-0.9 2.5,-2.6 2.5,-4.5 0,-2.9 -2.2,-5.3 -5,-5.3 z" stroke-width="4" stroke="black" fill="black" ></path></svg>